<svg xmlns="http://www.w3.org/2000/svg" viewBox="0 0 200 260">
<rect x="0" y="0" width="200" height="260" rx="22" fill="#fbf7ee"/>
<rect x="8" y="8" width="184" height="244" rx="18" fill="#fffdf8" stroke="#e7dcc8" stroke-width="4"/>
<g opacity="0.15"><text x="24" y="38" font-size="22" fill="#0d5e30" font-family="Arial" font-weight="700">BAMBOO</text></g>

    <g>
      <rect x="48" y="29" width="24" height="52" rx="10" fill="#1f8c4a" stroke="#0d5e30" stroke-width="4"/>
      <rect x="54" y="34" width="12" height="42" rx="6" fill="#8ee09f" opacity="0.95"/>
      <rect x="50" y="49" width="20" height="12" rx="6" fill="#0d5e30"/>
    </g>

    <g>
      <rect x="88" y="29" width="24" height="52" rx="10" fill="#1f8c4a" stroke="#0d5e30" stroke-width="4"/>
      <rect x="94" y="34" width="12" height="42" rx="6" fill="#8ee09f" opacity="0.95"/>
      <rect x="90" y="49" width="20" height="12" rx="6" fill="#0d5e30"/>
    </g>

    <g>
      <rect x="128" y="29" width="24" height="52" rx="10" fill="#1f8c4a" stroke="#0d5e30" stroke-width="4"/>
      <rect x="134" y="34" width="12" height="42" rx="6" fill="#8ee09f" opacity="0.95"/>
      <rect x="130" y="49" width="20" height="12" rx="6" fill="#0d5e30"/>
    </g>

    <g>
      <rect x="48" y="104" width="24" height="52" rx="10" fill="#1f8c4a" stroke="#0d5e30" stroke-width="4"/>
      <rect x="54" y="109" width="12" height="42" rx="6" fill="#8ee09f" opacity="0.95"/>
      <rect x="50" y="124" width="20" height="12" rx="6" fill="#0d5e30"/>
    </g>

    <g>
      <rect x="88" y="104" width="24" height="52" rx="10" fill="#1f8c4a" stroke="#0d5e30" stroke-width="4"/>
      <rect x="94" y="109" width="12" height="42" rx="6" fill="#8ee09f" opacity="0.95"/>
      <rect x="90" y="124" width="20" height="12" rx="6" fill="#0d5e30"/>
    </g>

    <g>
      <rect x="128" y="104" width="24" height="52" rx="10" fill="#1f8c4a" stroke="#0d5e30" stroke-width="4"/>
      <rect x="134" y="109" width="12" height="42" rx="6" fill="#8ee09f" opacity="0.95"/>
      <rect x="130" y="124" width="20" height="12" rx="6" fill="#0d5e30"/>
    </g>

    <g>
      <rect x="48" y="179" width="24" height="52" rx="10" fill="#1f8c4a" stroke="#0d5e30" stroke-width="4"/>
      <rect x="54" y="184" width="12" height="42" rx="6" fill="#8ee09f" opacity="0.95"/>
      <rect x="50" y="199" width="20" height="12" rx="6" fill="#0d5e30"/>
    </g>

    <g>
      <rect x="88" y="179" width="24" height="52" rx="10" fill="#1f8c4a" stroke="#0d5e30" stroke-width="4"/>
      <rect x="94" y="184" width="12" height="42" rx="6" fill="#8ee09f" opacity="0.95"/>
      <rect x="90" y="199" width="20" height="12" rx="6" fill="#0d5e30"/>
    </g>

    <g>
      <rect x="128" y="179" width="24" height="52" rx="10" fill="#1f8c4a" stroke="#0d5e30" stroke-width="4"/>
      <rect x="134" y="184" width="12" height="42" rx="6" fill="#8ee09f" opacity="0.95"/>
      <rect x="130" y="199" width="20" height="12" rx="6" fill="#0d5e30"/>
    </g>
</svg>
